<?xml version="1.0" encoding="UTF-8" standalone="no"?>
<!DOCTYPE svg PUBLIC "-//W3C//DTD SVG 1.1//EN"
 "http://www.w3.org/Graphics/SVG/1.1/DTD/svg11.dtd">
<!-- Generated by graphviz version 2.47.3 (0)
 -->
<!-- Title: pipeline_dag Pages: 1 -->
<svg width="971pt" height="343pt"
 viewBox="0.00 0.00 971.48 342.80" xmlns="http://www.w3.org/2000/svg" xmlns:xlink="http://www.w3.org/1999/xlink">
<g id="graph0" class="graph" transform="scale(1 1) rotate(0) translate(4 338.8)">
<title>pipeline_dag</title>
<polygon fill="white" stroke="transparent" points="-4,4 -4,-338.8 967.48,-338.8 967.48,4 -4,4"/>
<!-- p0 -->
<g id="node1" class="node">
<title>p0</title>
<ellipse fill="black" stroke="black" cx="366.49" cy="-316.2" rx="3.6" ry="3.6"/>
<text text-anchor="middle" x="312.89" y="-323.6" font-family="Times,serif" font-size="14.00">Channel.fromPath</text>
</g>
<!-- p1 -->
<g id="node2" class="node">
<title>p1</title>
<ellipse fill="none" stroke="black" cx="366.49" cy="-273.1" rx="3.5" ry="3.5"/>
<text text-anchor="middle" x="340.49" y="-280.4" font-family="Times,serif" font-size="14.00">splitCsv</text>
</g>
<!-- p0&#45;&gt;p1 -->
<g id="edge1" class="edge">
<title>p0&#45;&gt;p1</title>
<path fill="none" stroke="black" d="M366.49,-312.5C366.49,-307.4 366.49,-296.01 366.49,-286.96"/>
<polygon fill="black" stroke="black" points="369.99,-286.86 366.49,-276.86 362.99,-286.86 369.99,-286.86"/>
</g>
<!-- p2 -->
<g id="node3" class="node">
<title>p2</title>
<ellipse fill="none" stroke="black" cx="366.49" cy="-230.1" rx="3.5" ry="3.5"/>
<text text-anchor="middle" x="350.49" y="-237.4" font-family="Times,serif" font-size="14.00">map</text>
</g>
<!-- p1&#45;&gt;p2 -->
<g id="edge2" class="edge">
<title>p1&#45;&gt;p2</title>
<path fill="none" stroke="black" d="M366.49,-269.41C366.49,-264.31 366.49,-252.96 366.49,-243.93"/>
<polygon fill="black" stroke="black" points="369.99,-243.85 366.49,-233.85 362.99,-243.85 369.99,-243.85"/>
</g>
<!-- p3 -->
<g id="node4" class="node">
<title>p3</title>
<ellipse fill="none" stroke="black" cx="366.49" cy="-172.6" rx="77.19" ry="18"/>
<text text-anchor="middle" x="366.49" y="-168.9" font-family="Times,serif" font-size="14.00">SRA_PREFETCH</text>
</g>
<!-- p2&#45;&gt;p3 -->
<g id="edge3" class="edge">
<title>p2&#45;&gt;p3</title>
<path fill="none" stroke="black" d="M366.49,-226.42C366.49,-221.65 366.49,-211.19 366.49,-200.83"/>
<polygon fill="black" stroke="black" points="369.99,-200.71 366.49,-190.71 362.99,-200.71 369.99,-200.71"/>
</g>
<!-- p4 -->
<g id="node5" class="node">
<title>p4</title>
<ellipse fill="none" stroke="black" cx="366.49" cy="-115.1" rx="3.5" ry="3.5"/>
<text text-anchor="middle" x="335.49" y="-122.4" font-family="Times,serif" font-size="14.00">multiMap</text>
</g>
<!-- p3&#45;&gt;p4 -->
<g id="edge4" class="edge">
<title>p3&#45;&gt;p4</title>
<path fill="none" stroke="black" d="M366.49,-154.34C366.49,-146.19 366.49,-136.62 366.49,-129.09"/>
<polygon fill="black" stroke="black" points="369.99,-128.96 366.49,-118.96 362.99,-128.96 369.99,-128.96"/>
</g>
<!-- p5 -->
<g id="node6" class="node">
<title>p5</title>
<ellipse fill="none" stroke="black" cx="58.49" cy="-57.6" rx="58.49" ry="18"/>
<text text-anchor="middle" x="58.49" y="-53.9" font-family="Times,serif" font-size="14.00">SRA_DUMP</text>
</g>
<!-- p4&#45;&gt;p5 -->
<g id="edge5" class="edge">
<title>p4&#45;&gt;p5</title>
<path fill="none" stroke="black" d="M363.08,-113.67C341.48,-110.94 221.77,-95.46 125.49,-75.6 120.82,-74.64 115.98,-73.56 111.14,-72.43"/>
<polygon fill="black" stroke="black" points="111.79,-68.99 101.25,-70.06 110.16,-75.8 111.79,-68.99"/>
</g>
<!-- p9 -->
<g id="node7" class="node">
<title>p9</title>
<ellipse fill="none" stroke="black" cx="244.49" cy="-57.6" rx="109.68" ry="18"/>
<text text-anchor="middle" x="244.49" y="-53.9" font-family="Times,serif" font-size="14.00">SRA_DUMP_COMPRESS</text>
</g>
<!-- p4&#45;&gt;p9 -->
<g id="edge6" class="edge">
<title>p4&#45;&gt;p9</title>
<path fill="none" stroke="black" d="M363.48,-112.73C353.18,-108.04 318.43,-92.23 289.12,-78.9"/>
<polygon fill="black" stroke="black" points="290.39,-75.63 279.83,-74.68 287.49,-82 290.39,-75.63"/>
</g>
<!-- p7 -->
<g id="node9" class="node">
<title>p7</title>
<ellipse fill="none" stroke="black" cx="489.49" cy="-57.6" rx="117.78" ry="18"/>
<text text-anchor="middle" x="489.49" y="-53.9" font-family="Times,serif" font-size="14.00">PARALLEL_FASTQ_DUMP</text>
</g>
<!-- p4&#45;&gt;p7 -->
<g id="edge8" class="edge">
<title>p4&#45;&gt;p7</title>
<path fill="none" stroke="black" d="M369.54,-112.73C379.88,-108.06 414.73,-92.33 444.22,-79.03"/>
<polygon fill="black" stroke="black" points="445.89,-82.11 453.57,-74.81 443.01,-75.73 445.89,-82.11"/>
</g>
<!-- p11 -->
<g id="node12" class="node">
<title>p11</title>
<ellipse fill="none" stroke="black" cx="794.49" cy="-57.6" rx="168.97" ry="18"/>
<text text-anchor="middle" x="794.49" y="-53.9" font-family="Times,serif" font-size="14.00">PARALLEL_FASTQ_DUMP_COMPRESS</text>
</g>
<!-- p4&#45;&gt;p11 -->
<g id="edge11" class="edge">
<title>p4&#45;&gt;p11</title>
<path fill="none" stroke="black" d="M369.94,-113.65C396.06,-110.27 565,-88.36 681.73,-73.22"/>
<polygon fill="black" stroke="black" points="682.33,-76.67 691.8,-71.92 681.43,-69.73 682.33,-76.67"/>
</g>
<!-- p6 -->
<g id="node8" class="node">
<title>p6</title>
<ellipse fill="black" stroke="black" cx="58.49" cy="-1.8" rx="1.8" ry="1.8"/>
</g>
<!-- p5&#45;&gt;p6 -->
<g id="edge7" class="edge">
<title>p5&#45;&gt;p6</title>
<path fill="none" stroke="black" d="M58.49,-39.58C58.49,-31.17 58.49,-21.28 58.49,-13.87"/>
<polygon fill="black" stroke="black" points="61.99,-13.73 58.49,-3.73 54.99,-13.73 61.99,-13.73"/>
</g>
<!-- p10 -->
<g id="node11" class="node">
<title>p10</title>
<ellipse fill="black" stroke="black" cx="244.49" cy="-1.8" rx="1.8" ry="1.8"/>
</g>
<!-- p9&#45;&gt;p10 -->
<g id="edge10" class="edge">
<title>p9&#45;&gt;p10</title>
<path fill="none" stroke="black" d="M244.49,-39.58C244.49,-31.17 244.49,-21.28 244.49,-13.87"/>
<polygon fill="black" stroke="black" points="247.99,-13.73 244.49,-3.73 240.99,-13.73 247.99,-13.73"/>
</g>
<!-- p8 -->
<g id="node10" class="node">
<title>p8</title>
<ellipse fill="black" stroke="black" cx="489.49" cy="-1.8" rx="1.8" ry="1.8"/>
</g>
<!-- p7&#45;&gt;p8 -->
<g id="edge9" class="edge">
<title>p7&#45;&gt;p8</title>
<path fill="none" stroke="black" d="M489.49,-39.58C489.49,-31.17 489.49,-21.28 489.49,-13.87"/>
<polygon fill="black" stroke="black" points="492.99,-13.73 489.49,-3.73 485.99,-13.73 492.99,-13.73"/>
</g>
<!-- p12 -->
<g id="node13" class="node">
<title>p12</title>
<ellipse fill="black" stroke="black" cx="794.49" cy="-1.8" rx="1.8" ry="1.8"/>
</g>
<!-- p11&#45;&gt;p12 -->
<g id="edge12" class="edge">
<title>p11&#45;&gt;p12</title>
<path fill="none" stroke="black" d="M794.49,-39.58C794.49,-31.17 794.49,-21.28 794.49,-13.87"/>
<polygon fill="black" stroke="black" points="797.99,-13.73 794.49,-3.73 790.99,-13.73 797.99,-13.73"/>
</g>
</g>
</svg>
