<?xml version="1.0" encoding="UTF-8" standalone="no"?>
<!DOCTYPE svg PUBLIC "-//W3C//DTD SVG 1.1//EN"
 "http://www.w3.org/Graphics/SVG/1.1/DTD/svg11.dtd">
<!-- Generated by graphviz version 2.47.3 (0)
 -->
<!-- Title: pipeline_dag Pages: 1 -->
<svg width="676pt" height="347pt"
 viewBox="0.00 0.00 675.97 346.80" xmlns="http://www.w3.org/2000/svg" xmlns:xlink="http://www.w3.org/1999/xlink">
<g id="graph0" class="graph" transform="scale(1 1) rotate(0) translate(4 342.8)">
<title>pipeline_dag</title>
<polygon fill="white" stroke="transparent" points="-4,4 -4,-342.8 671.97,-342.8 671.97,4 -4,4"/>
<!-- p0 -->
<g id="node1" class="node">
<title>p0</title>
<ellipse fill="black" stroke="black" cx="299.69" cy="-320.2" rx="3.6" ry="3.6"/>
<text text-anchor="middle" x="246.09" y="-327.6" font-family="Times,serif" font-size="14.00">Channel.fromPath</text>
</g>
<!-- p1 -->
<g id="node2" class="node">
<title>p1</title>
<ellipse fill="none" stroke="black" cx="299.69" cy="-276.1" rx="3.5" ry="3.5"/>
<text text-anchor="middle" x="273.69" y="-283.4" font-family="Times,serif" font-size="14.00">splitCsv</text>
</g>
<!-- p0&#45;&gt;p1 -->
<g id="edge1" class="edge">
<title>p0&#45;&gt;p1</title>
<path fill="none" stroke="black" d="M299.69,-316.44C299.69,-311.15 299.69,-299.28 299.69,-289.95"/>
<polygon fill="black" stroke="black" points="303.19,-289.93 299.69,-279.93 296.19,-289.93 303.19,-289.93"/>
</g>
<!-- p2 -->
<g id="node3" class="node">
<title>p2</title>
<ellipse fill="none" stroke="black" cx="299.69" cy="-232.1" rx="3.5" ry="3.5"/>
<text text-anchor="middle" x="283.69" y="-239.4" font-family="Times,serif" font-size="14.00">map</text>
</g>
<!-- p1&#45;&gt;p2 -->
<g id="edge2" class="edge">
<title>p1&#45;&gt;p2</title>
<path fill="none" stroke="black" d="M299.69,-272.34C299.69,-267.07 299.69,-255.23 299.69,-245.92"/>
<polygon fill="black" stroke="black" points="303.19,-245.92 299.69,-235.92 296.19,-245.92 303.19,-245.92"/>
</g>
<!-- p3 -->
<g id="node4" class="node">
<title>p3</title>
<ellipse fill="none" stroke="black" cx="128.69" cy="-159.6" rx="128.88" ry="18"/>
<text text-anchor="middle" x="128.69" y="-155.9" font-family="Times,serif" font-size="14.00">SRA_FASTQ:SRA_PREFETCH</text>
</g>
<!-- p2&#45;&gt;p3 -->
<g id="edge3" class="edge">
<title>p2&#45;&gt;p3</title>
<path fill="none" stroke="black" d="M296.72,-229.88C282.71,-224.1 222.05,-199.09 177.62,-180.77"/>
<polygon fill="black" stroke="black" points="178.71,-177.44 168.13,-176.86 176.04,-183.91 178.71,-177.44"/>
<text text-anchor="middle" x="271.69" y="-199.4" font-family="Times,serif" font-size="14.00">samples</text>
</g>
<!-- p6 -->
<g id="node7" class="node">
<title>p6</title>
<ellipse fill="none" stroke="black" cx="471.69" cy="-159.6" rx="196.07" ry="18"/>
<text text-anchor="middle" x="471.69" y="-155.9" font-family="Times,serif" font-size="14.00">PARALLEL_FASTQ:PARALLEL_FASTQ_DUMP</text>
</g>
<!-- p2&#45;&gt;p6 -->
<g id="edge6" class="edge">
<title>p2&#45;&gt;p6</title>
<path fill="none" stroke="black" d="M302.67,-229.88C316.67,-224.14 376.96,-199.43 421.56,-181.15"/>
<polygon fill="black" stroke="black" points="422.89,-184.38 430.82,-177.35 420.24,-177.91 422.89,-184.38"/>
<text text-anchor="middle" x="407.69" y="-199.4" font-family="Times,serif" font-size="14.00">samples</text>
</g>
<!-- p4 -->
<g id="node5" class="node">
<title>p4</title>
<ellipse fill="none" stroke="black" cx="128.69" cy="-72.6" rx="110.48" ry="18"/>
<text text-anchor="middle" x="128.69" y="-68.9" font-family="Times,serif" font-size="14.00">SRA_FASTQ:SRA_DUMP</text>
</g>
<!-- p3&#45;&gt;p4 -->
<g id="edge4" class="edge">
<title>p3&#45;&gt;p4</title>
<path fill="none" stroke="black" d="M128.69,-141.4C128.69,-129.76 128.69,-114.15 128.69,-100.84"/>
<polygon fill="black" stroke="black" points="132.19,-100.78 128.69,-90.78 125.19,-100.78 132.19,-100.78"/>
</g>
<!-- p5 -->
<g id="node6" class="node">
<title>p5</title>
<ellipse fill="black" stroke="black" cx="128.69" cy="-1.8" rx="1.8" ry="1.8"/>
</g>
<!-- p4&#45;&gt;p5 -->
<g id="edge5" class="edge">
<title>p4&#45;&gt;p5</title>
<path fill="none" stroke="black" d="M128.69,-54.59C128.69,-42.06 128.69,-25.34 128.69,-14.34"/>
<polygon fill="black" stroke="black" points="132.19,-14.19 128.69,-4.19 125.19,-14.19 132.19,-14.19"/>
<text text-anchor="middle" x="143.19" y="-25.4" font-family="Times,serif" font-size="14.00">reads</text>
</g>
<!-- p7 -->
<g id="node8" class="node">
<title>p7</title>
<ellipse fill="black" stroke="black" cx="471.69" cy="-72.6" rx="1.8" ry="1.8"/>
</g>
<!-- p6&#45;&gt;p7 -->
<g id="edge7" class="edge">
<title>p6&#45;&gt;p7</title>
<path fill="none" stroke="black" d="M471.69,-141.4C471.69,-124.52 471.69,-99.26 471.69,-84.82"/>
<polygon fill="black" stroke="black" points="475.19,-84.68 471.69,-74.68 468.19,-84.68 475.19,-84.68"/>
<text text-anchor="middle" x="486.19" y="-112.4" font-family="Times,serif" font-size="14.00">reads</text>
</g>
</g>
</svg>
